<svg width="167" height="154" viewBox="0 0 167 154" fill="none" xmlns="http://www.w3.org/2000/svg">
<g clip-path="url(#clip0_2_1303)">
<path fill-rule="evenodd" clip-rule="evenodd" d="M88.1178 38.749C87.8872 22.7292 76.1529 8.73014 59.7891 6.17274C41.5095 3.31591 24.375 15.8186 21.5182 34.0982C18.9608 50.462 28.712 65.9081 43.8975 71.0155L43.7489 71.9661C27.7292 72.1966 13.7301 83.9309 11.1727 100.295C8.31588 118.574 20.8185 135.709 39.0982 138.566C55.462 141.123 70.9081 131.372 76.0155 116.186L76.966 116.335C77.1966 132.355 88.9309 146.354 105.295 148.911C123.574 151.768 140.709 139.265 143.566 120.986C146.123 104.622 136.372 89.1758 121.186 84.0683L121.335 83.1178C137.355 82.8873 151.354 71.153 153.911 54.7892C156.768 36.5095 144.265 19.375 125.986 16.5182C109.622 13.9608 94.1757 23.712 89.0683 38.8975L88.1178 38.749Z" fill="#FFA8A8"/>
<path d="M60.0084 66.9354L60.3086 65.0147L71.5264 54.4765L62.5395 53.072L62.8396 51.1513L74.4349 52.9634L74.1347 54.8841L62.9644 65.4298L72.6152 66.9381L72.3151 68.8587L60.0084 66.9354ZM79.987 70.3492C78.754 70.1565 77.7527 69.7247 76.983 69.0539C76.2159 68.3672 75.6747 67.5296 75.3596 66.541C75.0627 65.5392 75.0045 64.4613 75.1848 63.3073C75.38 62.0584 75.8009 61.023 76.4476 60.201C77.0967 59.3632 77.8864 58.766 78.8167 58.4093C79.7652 58.0393 80.7769 57.9384 81.8518 58.1064C82.7845 58.2521 83.5769 58.5703 84.229 59.0609C84.8835 59.5356 85.3906 60.125 85.7502 60.829C86.1281 61.5196 86.358 62.2762 86.44 63.0987C86.5378 63.9237 86.4896 64.7502 86.2954 65.5781L77.2374 64.1625C77.1158 65.1475 77.2082 65.9555 77.5144 66.5863C77.8365 67.2196 78.2556 67.6981 78.7719 68.0217C79.2906 68.3295 79.787 68.5204 80.2613 68.5945C80.9252 68.6983 81.4946 68.682 81.9693 68.5457C82.4623 68.396 82.8704 68.1683 83.1935 67.8625L85.0252 68.7318C84.4922 69.3448 83.7958 69.8109 82.9363 70.13C82.0767 70.4491 81.0936 70.5222 79.987 70.3492ZM77.5094 62.5775L84.4333 63.6596C84.5198 63.1063 84.4603 62.5545 84.2548 62.0041C84.0651 61.4563 83.7421 60.9847 83.2856 60.5895C82.8474 60.181 82.2806 59.9223 81.585 59.8136C81.0001 59.7222 80.4295 59.7464 79.8733 59.8862C79.317 60.026 78.8267 60.3137 78.4023 60.7494C77.9938 61.1876 77.6961 61.7969 77.5094 62.5775ZM87.8106 71.2804L89.6487 59.5192L91.0951 59.7453L91.3944 62.0268C91.9166 61.3797 92.5588 60.8971 93.3211 60.579C94.1016 60.2475 94.982 60.1584 95.9621 60.3116L95.6396 62.3745C95.529 62.3572 95.4104 62.3387 95.284 62.3189C95.1733 62.3016 95.0614 62.2922 94.9483 62.2908C93.5873 62.1914 92.5738 62.5108 91.9079 63.2488C91.2578 63.9893 90.819 65.0867 90.5918 66.541L89.8024 71.5917L87.8106 71.2804ZM100.709 73.5878C100.03 73.4816 99.3762 73.258 98.7493 72.9171C98.1224 72.5762 97.5706 72.1175 97.0939 71.541C96.6355 70.9512 96.3009 70.243 96.0899 69.4165C95.879 68.59 95.8563 67.6472 96.0219 66.5881C96.1874 65.5289 96.4967 64.638 96.9497 63.9153C97.4027 63.1926 97.9363 62.6282 98.5503 62.2221C99.1827 61.8027 99.8493 61.5264 100.55 61.393C101.251 61.2597 101.942 61.2461 102.621 61.3523C103.301 61.4586 103.955 61.6821 104.581 62.023C105.224 62.3664 105.775 62.833 106.233 63.4228C106.71 63.9993 107.046 64.6996 107.241 65.5236C107.452 66.3501 107.474 67.2929 107.309 68.3521C107.143 69.4112 106.834 70.3021 106.381 71.0248C105.944 71.75 105.409 72.3223 104.777 72.7417C104.163 73.1478 103.497 73.4162 102.78 73.5471C102.079 73.6805 101.389 73.694 100.709 73.5878ZM100.983 71.8331C101.553 71.922 102.129 71.8583 102.714 71.642C103.301 71.4098 103.817 71.0047 104.264 70.4268C104.713 69.833 105.017 69.0302 105.175 68.0185C105.333 67.0068 105.287 66.1576 105.038 65.4709C104.792 64.7685 104.424 64.225 103.933 63.8407C103.445 63.4405 102.916 63.196 102.347 63.107C101.794 63.0206 101.216 63.0922 100.613 63.3219C100.029 63.5382 99.5121 63.9433 99.063 64.5371C98.6164 65.115 98.3141 65.9099 98.156 66.9216C97.9978 67.9333 98.042 68.7904 98.2885 69.4929C98.5375 70.1796 98.906 70.723 99.394 71.1232C99.9004 71.51 100.43 71.7466 100.983 71.8331ZM52.2746 87.9938L50.7665 71.5315L53.2088 71.9132L54.2458 85.484L59.1843 72.847L61.7926 73.2547L62.6399 86.7959L67.7681 74.1886L70.2104 74.5703L63.775 89.7911L61.0718 89.3686L60.0586 75.8015L54.9541 88.4125L52.2746 87.9938ZM72.2082 91.4006C71.4652 91.2845 70.8065 91.0439 70.2319 90.6788C69.6574 90.3137 69.2279 89.8498 68.9434 89.2871C68.6588 88.7244 68.5722 88.0874 68.6833 87.376C68.8291 86.4434 69.268 85.7589 70.0002 85.3228C70.7481 84.889 71.7371 84.6226 72.9672 84.5233C74.2156 84.4107 75.6516 84.3922 77.2754 84.4679C77.4627 83.4769 77.3849 82.6793 77.0421 82.0751C76.6993 81.471 76.0536 81.0948 75.1051 80.9465C74.3938 80.8353 73.7829 80.9099 73.2726 81.1702C72.7806 81.4172 72.4269 81.8154 72.2114 82.3647L70.3797 81.4955C70.8367 80.6438 71.5066 80.0359 72.3894 79.6719C73.2905 79.2945 74.2706 79.1886 75.3297 79.3541C76.958 79.6086 78.083 80.1812 78.705 81.0719C79.3452 81.9493 79.5368 83.21 79.2799 84.854L78.85 87.6046C78.6968 88.5847 78.6041 89.4366 78.572 90.1603C78.5399 90.8841 78.5359 91.5312 78.5601 92.1018L76.7342 91.8164L76.512 90.1299C76.0728 90.6604 75.502 91.049 74.7995 91.2954C74.0995 91.5261 73.2357 91.5612 72.2082 91.4006ZM72.8833 89.8786C73.4998 89.9749 74.102 89.9557 74.6899 89.8208C75.2777 89.686 75.7863 89.3849 76.2156 88.9176C76.6474 88.4345 76.935 87.7345 77.0782 86.8176L77.1931 86.0825C75.9719 86.0212 74.9039 86.0163 73.989 86.0676C73.0766 86.1031 72.3494 86.2486 71.8075 86.504C71.2838 86.746 70.98 87.1358 70.896 87.6733C70.8095 88.2265 70.9367 88.708 71.2775 89.1175C71.6367 89.5137 72.1719 89.7674 72.8833 89.8786ZM85.4009 93.4624C84.7211 93.3562 84.0653 93.1484 83.4335 92.8391C82.8199 92.5165 82.2857 92.1011 81.8307 91.5927C81.394 91.071 81.0932 90.4572 80.9282 89.7513L82.9601 89.3401C83.0253 90.0628 83.3256 90.628 83.8611 91.0355C84.4149 91.4298 85.0158 91.6775 85.664 91.7788C86.1382 91.8529 86.592 91.851 87.0252 91.7729C87.4743 91.6974 87.8541 91.5462 88.1649 91.3195C88.4756 91.0927 88.6582 90.8055 88.7125 90.4577C88.8138 89.8096 88.6246 89.3104 88.145 88.9601C87.6811 88.6123 87.1046 88.3117 86.4155 88.0582L84.8312 87.4706C84.2819 87.2552 83.7795 86.9985 83.324 86.7006C82.871 86.3869 82.5277 85.9932 82.2941 85.5194C82.0604 85.0456 81.9992 84.4531 82.1104 83.7417C82.2215 83.0304 82.5355 82.4721 83.0522 82.0671C83.5714 81.6462 84.1907 81.3624 84.91 81.2157C85.6451 81.0715 86.392 81.0587 87.1508 81.1773C88.0835 81.323 88.9299 81.6577 89.6902 82.1814C90.4687 82.6917 90.9676 83.3851 91.187 84.2615L89.2062 84.6564C89.0748 84.15 88.7656 83.7454 88.2785 83.4426C87.8097 83.1264 87.2987 82.9251 86.7454 82.8386C86.1447 82.7447 85.5783 82.7938 85.0463 82.986C84.5142 83.1781 84.2087 83.5271 84.1296 84.033C84.0505 84.5389 84.198 84.9425 84.5719 85.2438C84.9642 85.5318 85.4587 85.7873 86.0554 86.0101L87.5485 86.5592C88.1611 86.7845 88.7334 87.0602 89.2654 87.3862C89.7975 87.7123 90.2082 88.1409 90.4977 88.6719C90.7896 89.1872 90.8701 89.8637 90.7392 90.7016C90.6231 91.4446 90.295 92.0411 89.7551 92.4911C89.2151 92.9411 88.5593 93.2516 87.7876 93.4225C87.0185 93.5775 86.2229 93.5909 85.4009 93.4624ZM96.1799 94.8555C95.4369 94.7394 94.871 94.5781 94.4823 94.3716C94.1118 94.1517 93.8808 93.816 93.7894 93.3645C93.7139 92.9154 93.7391 92.2878 93.8651 91.4816L94.9954 84.2494L93.0036 83.9381L93.2518 82.3494L95.2437 82.6607L95.7069 79.6967L97.6987 80.0079L97.2355 82.972L99.5119 83.3277L99.2636 84.9164L96.9872 84.5607L95.9088 91.4609C95.8149 92.0616 95.8072 92.4734 95.8858 92.6962C95.9801 92.9214 96.3119 93.0786 96.8809 93.1675L97.948 93.3343L97.6738 95.089L96.1799 94.8555ZM105.246 96.5639C104.013 96.3712 103.012 95.9394 102.242 95.2685C101.475 94.5818 100.934 93.7442 100.619 92.7557C100.322 91.7538 100.263 90.6759 100.444 89.5219C100.639 88.2731 101.06 87.2377 101.707 86.4157C102.356 85.5778 103.145 84.9806 104.076 84.624C105.024 84.254 106.036 84.153 107.111 84.321C108.044 84.4668 108.836 84.7849 109.488 85.2755C110.143 85.7503 110.65 86.3396 111.009 87.0436C111.387 87.7342 111.617 88.4908 111.699 89.3133C111.797 90.1383 111.749 90.9648 111.554 91.7927L102.496 90.3771C102.375 91.3622 102.467 92.1701 102.773 92.801C103.096 93.4343 103.515 93.9127 104.031 94.2363C104.55 94.5441 105.046 94.7351 105.52 94.8092C106.184 94.913 106.754 94.8967 107.228 94.7603C107.721 94.6107 108.129 94.383 108.453 94.0772L110.284 94.9464C109.751 95.5595 109.055 96.0256 108.195 96.3447C107.336 96.6637 106.353 96.7368 105.246 96.5639ZM102.768 88.7921L109.692 89.8742C109.779 89.3209 109.719 88.7691 109.514 88.2188C109.324 87.6709 109.001 87.1994 108.545 86.8042C108.106 86.3956 107.54 86.137 106.844 86.0283C106.259 85.9369 105.689 85.9611 105.132 86.1008C104.576 86.2406 104.086 86.5284 103.661 86.9641C103.253 87.4022 102.955 88.0116 102.768 88.7921Z" fill="black"/>
</g>
<defs>
<clipPath id="clip0_2_1303">
<rect width="167" height="153" fill="white" transform="translate(0 0.5)"/>
</clipPath>
</defs>
</svg>
