<svg width="30" height="30" viewBox="0 0 30 30" fill="none" xmlns="http://www.w3.org/2000/svg">
<path fill-rule="evenodd" clip-rule="evenodd" d="M21.2044 0.540039H8.18843C3.69561 0.540039 0.0534668 4.18218 0.0534668 8.675V21.6909C0.0534668 26.1837 3.69561 29.8259 8.18843 29.8259H21.2044C25.6972 29.8259 29.3393 26.1837 29.3393 21.6909V8.675C29.3393 4.18218 25.6972 0.540039 21.2044 0.540039ZM26.4921 21.6909C26.4831 24.6075 24.121 26.9697 21.2044 26.9786H8.18842C5.2718 26.9697 2.90963 24.6075 2.9007 21.6909V8.67494C2.90963 5.75832 5.2718 3.39615 8.18842 3.38722H21.2044C24.121 3.39615 26.4831 5.75832 26.4921 8.67494V21.6909ZM22.4246 9.0818C23.3232 9.0818 24.0516 8.35337 24.0516 7.45481C24.0516 6.55625 23.3232 5.82782 22.4246 5.82782C21.526 5.82782 20.7976 6.55625 20.7976 7.45481C20.7976 8.35337 21.526 9.0818 22.4246 9.0818ZM14.6964 7.86158C10.6529 7.86158 7.37493 11.1395 7.37493 15.183C7.37493 19.2266 10.6529 22.5045 14.6964 22.5045C18.7399 22.5045 22.0179 19.2266 22.0179 15.183C22.0222 13.2399 21.2522 11.3752 19.8782 10.0012C18.5043 8.62722 16.6395 7.85724 14.6964 7.86158ZM10.2222 15.183C10.2222 17.654 12.2253 19.6572 14.6964 19.6572C17.1674 19.6572 19.1706 17.654 19.1706 15.183C19.1706 12.7119 17.1674 10.7087 14.6964 10.7087C12.2253 10.7087 10.2222 12.7119 10.2222 15.183Z" fill="black"/>
</svg>
