<svg width="29" height="26" viewBox="0 0 29 26" fill="none" xmlns="http://www.w3.org/2000/svg">
<path d="M28.7701 4.51743C28.0354 5.50561 27.1474 6.36761 26.1403 7.07013C26.1403 7.32827 26.1403 7.58641 26.1403 7.85889C26.1484 12.5467 24.2915 17.0416 20.986 20.3361C17.6804 23.6306 13.2027 25.449 8.55664 25.3836C5.87065 25.3927 3.21906 24.7742 0.809578 23.5767C0.679659 23.5195 0.595863 23.3898 0.596356 23.2468V23.0891C0.596356 22.8831 0.761825 22.7162 0.965941 22.7162C3.6062 22.6285 6.15227 21.7053 8.24391 20.0775C5.85411 20.0289 3.7039 18.6013 2.71436 16.4061C2.66438 16.2862 2.67994 16.1487 2.75543 16.0433C2.83091 15.9378 2.95541 15.8797 3.08394 15.8899C3.81026 15.9635 4.54383 15.8953 5.24459 15.6891C2.60645 15.1369 0.624184 12.9283 0.34049 10.2252C0.330407 10.0955 0.388035 9.96988 0.492555 9.89373C0.597074 9.81757 0.733377 9.80187 0.852223 9.85229C1.56018 10.1673 2.32443 10.3332 3.09816 10.3399C0.786523 8.8099 -0.211951 5.8998 0.66743 3.25542C0.758203 2.99846 0.976285 2.80863 1.24153 2.7557C1.50678 2.70277 1.78007 2.79453 1.96098 2.99728C5.08039 6.34516 9.3665 8.34015 13.9156 8.5616C13.7991 8.09273 13.7418 7.61087 13.745 7.1275C13.7876 4.5929 15.3428 2.33504 17.6825 1.41094C20.0222 0.48685 22.6835 1.07942 24.4203 2.91123C25.6043 2.68379 26.7488 2.28278 27.8177 1.72093C27.896 1.67163 27.9952 1.67163 28.0735 1.72093C28.1224 1.79991 28.1224 1.90008 28.0735 1.97906C27.5558 3.17454 26.6813 4.17722 25.5717 4.84727C26.5433 4.73365 27.4978 4.50254 28.4147 4.1589C28.4919 4.10591 28.5934 4.10591 28.6706 4.1589C28.7352 4.18874 28.7836 4.2458 28.8028 4.31488C28.8219 4.38396 28.81 4.45805 28.7701 4.51743Z" fill="black"/>
</svg>
