<svg width="215" height="215" viewBox="0 0 215 215" fill="none" xmlns="http://www.w3.org/2000/svg">
<path d="M132.22 39.8611C135.844 37.0823 141.103 39.4559 141.417 44.0119L143.118 68.7057C143.305 71.4232 145.381 73.6328 148.081 73.9893L172.621 77.2293C177.148 77.827 179.189 83.2242 176.189 86.6677L159.931 105.332C158.141 107.386 158.047 110.416 159.704 112.577L174.765 132.22C177.544 135.844 175.17 141.103 170.614 141.417L145.92 143.118C143.203 143.305 140.993 145.381 140.637 148.082L137.397 172.621C136.799 177.148 131.402 179.189 127.958 176.189L109.295 159.931C107.241 158.141 104.211 158.047 102.049 159.704L82.406 174.765C78.7819 177.544 73.5227 175.17 73.2089 170.614L71.508 145.921C71.3208 143.203 69.2452 140.993 66.5447 140.637L42.0053 137.397C37.4779 136.799 35.4374 131.402 38.4371 127.959L54.6955 109.295C56.4847 107.241 56.5794 104.211 54.922 102.049L39.861 82.4061C37.0823 78.782 39.4559 73.5228 44.0118 73.2089L68.7057 71.508C71.4232 71.3209 73.6327 69.2453 73.9893 66.5448L77.2292 42.0054C77.827 37.4779 83.2242 35.4375 86.6676 38.4371L105.332 54.6955C107.385 56.4848 110.415 56.5795 112.577 54.922L132.22 39.8611Z" fill="#FFA8A8"/>
<path d="M81.6009 98.1832L87.0907 86.0191L82.7947 84.0802L83.5245 82.4631C84.2968 82.8117 85.0382 83.0785 85.7488 83.2636C86.4754 83.456 87.1563 83.4921 87.7915 83.3721C88.4428 83.2593 89.0299 82.9239 89.5529 82.3659L90.9045 82.9759L83.6282 99.0981L81.6009 98.1832ZM93.6908 103.988C91.6152 103.051 90.3535 101.62 89.9056 99.6943C89.4812 97.7597 89.8789 95.4408 91.0989 92.7376C92.3116 90.0506 93.7801 88.2343 95.5044 87.2889C97.2449 86.3506 99.1529 86.3499 101.229 87.2867C103.304 88.2234 104.558 89.6511 104.99 91.5696C105.437 93.4955 105.055 95.8019 103.842 98.4889C102.622 101.192 101.138 103.021 99.3908 103.975C97.6664 104.921 95.7664 104.925 93.6908 103.988ZM99.6562 100.812C100.365 99.9702 101.029 98.8654 101.646 97.4977C102.597 95.3899 102.981 93.6167 102.798 92.1782C102.63 90.7469 101.838 89.7117 100.422 89.0727C99.3766 88.6007 98.3705 88.534 97.4043 88.8726L99.6562 100.812ZM94.4969 102.202C95.6071 102.703 96.6635 102.744 97.666 102.325L95.4227 90.3023C95.0367 90.7285 94.6654 91.2291 94.3091 91.8043C93.9527 92.3794 93.6147 93.0209 93.2952 93.7289C92.3439 95.8367 91.9483 97.6143 92.1085 99.0617C92.2848 100.516 93.081 101.563 94.4969 102.202ZM109.341 111.051C107.265 110.115 106.004 108.683 105.556 106.757C105.131 104.823 105.529 102.504 106.749 99.8008C107.962 97.1138 109.43 95.2975 111.155 94.352C112.895 93.4138 114.803 93.4131 116.879 94.3498C118.954 95.2866 120.208 96.7143 120.64 98.6328C121.088 100.559 120.705 102.865 119.492 105.552C118.272 108.255 116.789 110.084 115.041 111.038C113.317 111.984 111.417 111.988 109.341 111.051ZM115.306 107.875C116.016 107.033 116.679 105.929 117.296 104.561C118.247 102.453 118.631 100.68 118.448 99.2413C118.28 97.81 117.489 96.7749 116.073 96.1358C115.027 95.6638 114.021 95.5971 113.054 95.9357L115.306 107.875ZM110.147 109.265C111.257 109.766 112.314 109.807 113.316 109.388L111.073 97.3655C110.687 97.7917 110.316 98.2923 109.959 98.8674C109.603 99.4425 109.265 100.084 108.945 100.792C107.994 102.9 107.598 104.677 107.759 106.125C107.935 107.579 108.731 108.626 110.147 109.265ZM126.065 109.041C125.26 108.678 124.607 108.151 124.106 107.46C123.628 106.76 123.336 105.989 123.232 105.148C123.143 104.314 123.281 103.495 123.644 102.69C124.014 101.87 124.541 101.217 125.225 100.731C125.925 100.253 126.692 99.9699 127.526 99.8814C128.383 99.7842 129.214 99.9171 130.019 100.28C130.823 100.643 131.465 101.175 131.943 101.875C132.428 102.559 132.715 103.318 132.803 104.152C132.908 104.993 132.775 105.824 132.405 106.644C132.042 107.449 131.51 108.09 130.81 108.568C130.126 109.054 129.364 109.349 128.522 109.453C127.688 109.542 126.869 109.404 126.065 109.041ZM121.791 116.322L140.363 105.297L142.487 106.256L123.915 117.28L121.791 116.322ZM126.871 107.255C127.579 107.575 128.295 107.598 129.019 107.324C129.766 107.041 130.299 106.546 130.619 105.838C130.946 105.114 130.964 104.387 130.674 103.655C130.408 102.915 129.921 102.386 129.213 102.066C128.489 101.739 127.753 101.717 127.006 102C126.282 102.273 125.756 102.772 125.43 103.496C125.11 104.204 125.092 104.932 125.374 105.679C125.664 106.41 126.163 106.936 126.871 107.255ZM134.259 122.297C133.454 121.934 132.801 121.407 132.3 120.716C131.822 120.016 131.53 119.245 131.426 118.404C131.345 117.554 131.486 116.727 131.849 115.922C132.212 115.118 132.735 114.473 133.419 113.987C134.127 113.493 134.897 113.202 135.731 113.113C136.588 113.016 137.419 113.149 138.224 113.512C139.028 113.875 139.67 114.407 140.148 115.107C140.633 115.791 140.917 116.558 140.998 117.408C141.102 118.249 140.973 119.072 140.61 119.876C140.247 120.681 139.712 121.33 139.004 121.824C138.321 122.31 137.558 122.605 136.717 122.709C135.883 122.798 135.063 122.66 134.259 122.297ZM135.065 120.511C135.773 120.831 136.493 120.846 137.224 120.556C137.971 120.273 138.504 119.778 138.824 119.07C139.143 118.362 139.158 117.643 138.869 116.912C138.602 116.172 138.115 115.642 137.407 115.322C136.683 114.995 135.947 114.973 135.2 115.256C134.476 115.53 133.954 116.02 133.635 116.728C133.315 117.436 133.289 118.16 133.555 118.9C133.838 119.648 134.341 120.185 135.065 120.511Z" fill="black"/>
<path d="M68.5698 107.271L72.0535 100.173L73.9874 101.122C74.5541 101.4 75.0417 101.714 75.4501 102.064C75.8691 102.411 76.1861 102.803 76.4011 103.243C76.6161 103.683 76.7062 104.179 76.6715 104.734C76.6403 105.281 76.4595 105.891 76.1292 106.564C75.7955 107.244 75.42 107.767 75.0027 108.134C74.589 108.494 74.1407 108.726 73.658 108.832C73.1788 108.931 72.6723 108.924 72.1386 108.812C71.6154 108.696 71.0705 108.498 70.5038 108.22L68.5698 107.271ZM69.9807 106.922L70.8945 107.37C71.2629 107.551 71.631 107.697 71.9988 107.807C72.3772 107.914 72.7445 107.944 73.1006 107.899C73.4672 107.851 73.8172 107.684 74.1503 107.399C74.494 107.111 74.8136 106.666 75.1092 106.063C75.4047 105.461 75.5579 104.943 75.5688 104.509C75.5902 104.071 75.5063 103.696 75.3169 103.383C75.1381 103.067 74.8891 102.795 74.5698 102.568C74.2611 102.338 73.9225 102.132 73.5541 101.951L72.6403 101.503L69.9807 106.922ZM75.3123 110.58L75.6982 109.794L76.6971 110.284L79.4089 104.759L78.41 104.268L78.7959 103.482L81.7925 104.953L81.4065 105.739L80.4077 105.249L77.6959 110.774L78.6948 111.265L78.3088 112.051L75.3123 110.58ZM82.0935 114.067C81.7039 113.875 81.3545 113.629 81.0452 113.328C80.7359 113.027 80.5005 112.683 80.3388 112.296C80.1842 111.912 80.137 111.498 80.1972 111.053L81.2573 111.23C81.2171 111.527 81.251 111.807 81.3588 112.071C81.4701 112.328 81.6306 112.556 81.8403 112.756C82.0571 112.959 82.293 113.123 82.548 113.248C82.8314 113.387 83.1231 113.473 83.4234 113.506C83.7236 113.539 83.9968 113.502 84.2431 113.394C84.4999 113.283 84.6978 113.086 84.8369 112.802C84.9794 112.512 84.9861 112.229 84.8571 111.955C84.728 111.681 84.4344 111.348 83.9762 110.956L83.1721 110.311C82.8879 110.066 82.6212 109.794 82.372 109.496C82.1298 109.201 81.9704 108.873 81.8936 108.51C81.8238 108.15 81.8968 107.751 82.1123 107.312C82.3105 106.908 82.6031 106.625 82.9901 106.464C83.3842 106.305 83.8161 106.249 84.2858 106.295C84.7626 106.345 85.217 106.475 85.6492 106.687C85.9821 106.851 86.2836 107.06 86.5537 107.316C86.8344 107.568 87.0536 107.856 87.2112 108.179C87.3795 108.499 87.4632 108.848 87.4625 109.225L86.4183 109.043C86.4054 108.729 86.2779 108.433 86.0359 108.156C85.8009 107.883 85.5205 107.666 85.1947 107.506C84.9396 107.381 84.6744 107.303 84.3989 107.274C84.1269 107.237 83.8765 107.263 83.6478 107.353C83.4191 107.443 83.2439 107.612 83.1222 107.86C83.0074 108.094 82.9826 108.315 83.0477 108.522C83.1198 108.734 83.2484 108.937 83.4333 109.134C83.6289 109.326 83.8491 109.522 84.0941 109.722L84.7864 110.272C85.1059 110.535 85.3886 110.818 85.6344 111.124C85.8801 111.429 86.0361 111.765 86.1024 112.131C86.1686 112.498 86.0905 112.908 85.868 113.361C85.708 113.687 85.4858 113.943 85.2013 114.128C84.9203 114.307 84.6053 114.42 84.2563 114.469C83.9108 114.51 83.5489 114.495 83.1708 114.424C82.7997 114.356 82.4406 114.237 82.0935 114.067ZM86.1535 115.888L89.6319 108.8L91.8527 109.89C92.4336 110.175 92.9158 110.482 93.2994 110.811C93.6901 111.143 93.9329 111.526 94.0279 111.96C94.1334 112.389 94.0419 112.898 93.7533 113.486C93.4682 114.067 93.1217 114.451 92.7137 114.637C92.3162 114.82 91.8666 114.859 91.3647 114.753C90.8733 114.644 90.3372 114.447 89.7563 114.162L88.5343 113.562L87.1523 116.378L86.1535 115.888ZM88.9567 112.701L90.2637 113.343C90.6108 113.513 90.9347 113.641 91.2353 113.727C91.5359 113.813 91.8111 113.808 92.061 113.711C92.3214 113.61 92.5455 113.368 92.7332 112.986C92.9244 112.596 92.9802 112.267 92.9006 112C92.8281 111.736 92.6676 111.507 92.4191 111.315C92.1706 111.123 91.8729 110.942 91.5257 110.771L90.2188 110.13L88.9567 112.701ZM95.5171 120.655C94.8371 120.321 94.3256 119.876 93.9827 119.321C93.6433 118.759 93.471 118.134 93.4659 117.446C93.4714 116.754 93.6497 116.051 94.0008 115.335C94.352 114.62 94.796 114.055 95.3329 113.642C95.8803 113.225 96.4785 112.982 97.1273 112.914C97.7797 112.839 98.4458 112.968 99.1259 113.301C99.813 113.639 100.326 114.088 100.666 114.651C101.009 115.206 101.179 115.825 101.177 116.51C101.186 117.191 101.014 117.889 100.663 118.605C100.312 119.32 99.8611 119.89 99.3102 120.314C98.7698 120.735 98.1735 120.983 97.5211 121.058C96.8723 121.126 96.2043 120.992 95.5171 120.655ZM95.9291 119.815C96.3612 120.027 96.8047 120.109 97.2596 120.059C97.7216 120.014 98.1579 119.832 98.5684 119.515C98.9825 119.191 99.3407 118.721 99.6432 118.104C99.9422 117.495 100.092 116.931 100.091 116.412C100.094 115.886 99.971 115.43 99.7211 115.044C99.4818 114.654 99.146 114.353 98.7139 114.141C98.2889 113.932 97.8454 113.851 97.3834 113.897C96.932 113.939 96.4993 114.122 96.0852 114.446C95.6747 114.763 95.3199 115.227 95.0209 115.836C94.7184 116.452 94.5656 117.023 94.5625 117.549C94.5628 118.068 94.6826 118.522 94.9219 118.912C95.1684 119.306 95.5041 119.607 95.9291 119.815ZM102.526 124.094C102.136 123.903 101.787 123.657 101.477 123.356C101.168 123.054 100.933 122.71 100.771 122.323C100.616 121.94 100.569 121.525 100.629 121.08L101.689 121.258C101.649 121.554 101.683 121.835 101.791 122.099C101.902 122.355 102.063 122.584 102.272 122.783C102.489 122.986 102.725 123.15 102.98 123.276C103.263 123.415 103.555 123.501 103.855 123.534C104.156 123.567 104.429 123.53 104.675 123.422C104.932 123.311 105.13 123.113 105.269 122.83C105.411 122.539 105.418 122.257 105.289 121.983C105.16 121.708 104.866 121.375 104.408 120.983L103.604 120.338C103.32 120.093 103.053 119.822 102.804 119.524C102.562 119.229 102.402 118.9 102.326 118.537C102.256 118.178 102.329 117.779 102.544 117.339C102.743 116.936 103.035 116.653 103.422 116.491C103.816 116.333 104.248 116.277 104.718 116.323C105.195 116.372 105.649 116.503 106.081 116.715C106.414 116.878 106.716 117.088 106.986 117.344C107.266 117.596 107.486 117.883 107.643 118.207C107.812 118.527 107.895 118.875 107.895 119.253L106.85 119.07C106.837 118.756 106.71 118.461 106.468 118.184C106.233 117.91 105.953 117.693 105.627 117.534C105.372 117.408 105.106 117.331 104.831 117.301C104.559 117.264 104.309 117.291 104.08 117.381C103.851 117.471 103.676 117.64 103.554 117.888C103.44 118.121 103.415 118.342 103.48 118.55C103.552 118.761 103.68 118.965 103.865 119.161C104.061 119.354 104.281 119.55 104.526 119.749L105.218 120.3C105.538 120.562 105.821 120.846 106.066 121.151C106.312 121.456 106.468 121.792 106.534 122.159C106.601 122.525 106.523 122.935 106.3 123.389C106.14 123.715 105.918 123.97 105.633 124.156C105.352 124.334 105.037 124.448 104.688 124.496C104.343 124.538 103.981 124.523 103.603 124.451C103.232 124.384 102.873 124.265 102.526 124.094ZM105.879 125.582L112.035 119.782L113.151 120.33L112.318 128.742L111.256 128.221L111.475 126.403L108.245 124.818L106.942 126.103L105.879 125.582ZM108.976 124.108L111.59 125.391L112.092 121.063L108.976 124.108ZM113.232 129.19L116.716 122.092L119.574 123.495C120.091 123.749 120.467 124.039 120.703 124.366C120.945 124.695 121.075 125.032 121.091 125.374C121.118 125.712 121.057 126.034 120.908 126.339C120.769 126.622 120.568 126.87 120.305 127.084C120.041 127.298 119.739 127.448 119.397 127.535C119.661 127.894 119.8 128.274 119.813 128.676C119.838 129.074 119.766 129.444 119.599 129.784C119.432 130.124 119.184 130.406 118.854 130.631C118.531 130.859 118.147 130.987 117.703 131.015C117.258 131.043 116.777 130.93 116.26 130.677L113.232 129.19ZM116.223 125.622L118.189 126.586C118.55 126.764 118.875 126.782 119.163 126.643C119.459 126.506 119.672 126.304 119.804 126.034C119.895 125.85 119.939 125.652 119.938 125.44C119.943 125.232 119.891 125.035 119.78 124.849C119.68 124.659 119.509 124.505 119.268 124.387L117.302 123.422L116.223 125.622ZM114.643 128.841L116.779 129.889C117.041 130.018 117.29 130.066 117.526 130.032C117.762 129.999 117.972 129.912 118.154 129.773C118.34 129.627 118.483 129.452 118.584 129.246C118.685 129.041 118.733 128.827 118.728 128.604C118.733 128.379 118.672 128.164 118.543 127.96C118.425 127.753 118.231 127.583 117.962 127.451L115.837 126.408L114.643 128.841ZM119.811 132.419L123.295 125.321L124.293 125.811L121.232 132.049L125.047 133.921L124.624 134.782L119.811 132.419ZM125.539 135.23L129.023 128.132L133.836 130.495L133.414 131.355L129.599 129.483L128.54 131.64L131.356 133.022L130.934 133.883L128.118 132.501L126.96 134.86L130.775 136.732L130.352 137.593L125.539 135.23Z" fill="black"/>
</svg>
