<svg width="141" height="141" viewBox="0 0 141 141" fill="none" xmlns="http://www.w3.org/2000/svg">
<rect y="123.834" width="125" height="125" rx="62.5" transform="rotate(-82.1689 0 123.834)" fill="#9EEAD4"/>
<path d="M44.965 77.1302C43.4974 77.9776 42.0496 78.365 40.6217 78.2926C39.2002 78.196 37.8701 77.7103 36.6312 76.8356C35.4077 75.9521 34.3458 74.7307 33.4455 73.1713C32.5275 71.5814 32.0192 70.0301 31.9205 68.5175C31.8283 66.9809 32.1275 65.5749 32.8181 64.2997C33.5087 63.0245 34.5725 61.972 36.0096 61.1423C37.2938 60.4009 38.6201 60.0326 39.9886 60.0375C41.3724 60.0335 42.654 60.435 43.8334 61.2421L42.3273 63.029C41.5938 62.5352 40.7595 62.2729 39.8244 62.242C38.8957 62.187 37.9346 62.4464 36.9409 63.0201C36.0389 63.5409 35.3534 64.2424 34.8844 65.1247C34.4306 65.9982 34.2545 67.0171 34.356 68.1815C34.4487 69.3307 34.879 70.5703 35.6469 71.9003C36.3884 73.1845 37.2226 74.1705 38.1497 74.8582C39.092 75.5372 40.0637 75.9139 41.0647 75.9882C42.0809 76.0538 43.063 75.8129 44.0108 75.2657C44.5153 74.9744 44.9998 74.6132 45.4643 74.1819C45.9287 73.7507 46.2988 73.2619 46.5744 72.7154C46.8413 72.1537 46.9622 71.5335 46.9373 70.8549C46.9124 70.1762 46.6704 69.4394 46.2115 68.6444L45.9202 68.1399L41.4485 70.7216L40.3761 68.8642L46.8887 65.1041L51.4564 73.0156L50.2181 73.7305L48.5326 72.1352C48.4936 73.1974 48.1475 74.1514 47.4944 74.9973C46.8477 75.8191 46.0046 76.53 44.965 77.1302ZM59.5946 68.6839C57.3779 69.9637 55.4778 70.3269 53.8945 69.7734C52.3023 69.2046 50.8619 67.8042 49.5732 65.5722L44.423 56.6517L46.5786 55.4072L51.8215 64.4882C52.6953 66.0017 53.6598 66.9838 54.715 67.4345C55.7855 67.8764 57.0546 67.6737 58.5222 66.8264C59.9898 65.9791 60.7923 64.9858 60.9295 63.8466C61.0821 62.6986 60.7214 61.3678 59.8476 59.8543L54.6047 50.7733L56.7603 49.5288L61.9105 58.4493C63.1992 60.6813 63.6917 62.6289 63.3882 64.2922C63.0912 65.9313 61.8266 67.3952 59.5946 68.6839ZM67.38 63.8221L66.4002 62.1251L68.5558 60.8806L61.6712 48.9561L59.5156 50.2006L58.5359 48.5037L65.0026 44.7701L65.9824 46.467L63.8268 47.7115L70.7114 59.6361L72.867 58.3915L73.8467 60.0885L67.38 63.8221ZM75.6139 59.0682L66.7698 43.7498L68.9254 42.5053L76.6971 55.9662L84.9296 51.2132L86.002 53.0706L75.6139 59.0682ZM87.6886 52.0969L79.9169 38.636L74.826 41.5752L73.7536 39.7177L86.0909 32.5948L87.1633 34.4522L82.0725 37.3914L89.8441 50.8524L87.6886 52.0969ZM57.5635 107.595L48.7194 92.2763L58.6718 86.5303L59.7442 88.3878L51.9474 92.8892L54.6351 97.5444L62.4319 93.0429L63.5043 94.9004L55.7075 99.4019L59.7191 106.35L57.5635 107.595ZM68.6362 101.202L59.7921 85.8835L64.6536 83.0767C65.9072 82.3529 67.0741 81.8321 68.1544 81.5142C69.2411 81.1721 70.2373 81.1677 71.1431 81.5009C72.0554 81.8099 72.8646 82.5759 73.5707 83.799C73.9679 84.4869 74.2316 85.1908 74.3618 85.9106C74.492 86.6304 74.3705 87.3732 73.9973 88.139C73.6393 88.896 72.9127 89.7028 71.8173 90.5595L80.3772 94.4232L77.7401 95.9458L69.3646 92.1896L67.0714 93.5136L70.7918 99.9574L68.6362 101.202ZM66.0255 91.702L68.892 90.047C69.6411 89.6145 70.2828 89.1726 70.8173 88.7214C71.367 88.2613 71.7118 87.7463 71.8515 87.1764C71.9978 86.5824 71.8458 85.8955 71.3957 85.1158C70.9367 84.3209 70.4179 83.8458 69.8391 83.6908C69.2757 83.5269 68.6573 83.5679 67.984 83.814C67.3172 84.0359 66.6092 84.3631 65.8601 84.7956L62.9936 86.4506L66.0255 91.702ZM81.3212 93.8782L72.4771 78.5598L82.8652 72.5622L83.9376 74.4197L75.7051 79.1727L78.3928 83.8279L84.4697 80.3194L85.5421 82.1769L79.4652 85.6854L82.4044 90.7762L90.6369 86.0232L91.7093 87.8806L81.3212 93.8782ZM92.8417 87.2268L83.9976 71.9084L94.3857 65.9109L95.4581 67.7683L87.2256 72.5214L89.9133 77.1765L95.9902 73.668L97.0626 75.5255L90.9857 79.034L93.9249 84.1248L102.157 79.3718L103.23 81.2293L92.8417 87.2268ZM102.652 75.6007L98.254 68.9365L95.9768 64.9923L98.0177 63.8139L100.295 67.7582L103.867 74.899L102.652 75.6007ZM105.989 80.0033C105.591 80.2328 105.163 80.2862 104.705 80.1634C104.247 80.0406 103.903 79.7805 103.674 79.383C103.435 78.9702 103.378 78.5348 103.5 78.0766C103.623 77.6184 103.883 77.2746 104.281 77.0451C104.694 76.8068 105.129 76.749 105.587 76.8718C106.045 76.9946 106.394 77.2623 106.632 77.6751C106.861 78.0726 106.915 78.5004 106.792 78.9586C106.669 79.4167 106.402 79.765 105.989 80.0033Z" fill="black"/>
</svg>
