<svg width="30" height="30" viewBox="0 0 30 30" fill="none" xmlns="http://www.w3.org/2000/svg">
<path d="M29.0534 3.65844V26.7075C29.0534 28.526 27.6081 30.0002 25.8253 30.0002H19.7725C19.3267 30.0002 18.9654 29.6317 18.9654 29.177V19.2989H22.7424C23.1259 19.2989 23.4566 19.0237 23.5333 18.6403L24.1143 15.6769C24.1383 15.5572 24.1089 15.4328 24.0341 15.3374C23.9593 15.2419 23.8467 15.1854 23.727 15.183H18.9654V9.8323C18.9654 9.60498 19.1461 9.42071 19.3689 9.42071H23.4041C23.8499 9.42071 24.2112 9.05216 24.2112 8.59753V6.12798C24.2112 5.67335 23.8499 5.3048 23.4041 5.3048H19.3689C16.6947 5.3048 14.5267 7.51611 14.5267 10.2439V15.183H12.5414C12.0957 15.183 11.7344 15.5515 11.7344 16.0061V18.4757C11.7344 18.9303 12.0957 19.2989 12.5414 19.2989H14.5267V29.177C14.5267 29.6317 14.1654 30.0002 13.7197 30.0002H3.22816C1.4453 30.0002 0 28.526 0 26.7075V3.65844C0 1.83992 1.4453 0.365723 3.22816 0.365723H25.8253C27.6081 0.365723 29.0534 1.83992 29.0534 3.65844Z" fill="black"/>
</svg>
