<svg width="1219" height="428" viewBox="0 0 1219 428" fill="none" xmlns="http://www.w3.org/2000/svg">
<g clip-path="url(#clip0_10_1550)">
<rect width="1219" height="428" fill="#19473A"/>
<path fill-rule="evenodd" clip-rule="evenodd" d="M1148.28 16.5097C1144.25 -7.06062 1123.72 -25 1099 -25C1071.39 -25 1049 -2.61424 1049 25C1049 49.72 1066.94 70.2502 1090.51 74.2821V75.7179C1066.94 79.7498 1049 100.28 1049 125C1049 152.614 1071.39 175 1099 175C1123.72 175 1144.25 157.061 1148.28 133.491H1149.72C1153.75 157.061 1174.28 175 1199 175C1226.61 175 1249 152.614 1249 125C1249 100.28 1231.06 79.7499 1207.49 75.718V74.282C1231.06 70.2501 1249 49.72 1249 25C1249 -2.61424 1226.61 -25 1199 -25C1174.28 -25 1153.75 -7.06062 1149.72 16.5097H1148.28Z" fill="#FFA8A8"/>
<path fill-rule="evenodd" clip-rule="evenodd" d="M53.0743 343.19C50.9189 330.59 39.9439 321 26.729 321C11.967 321 0 332.967 0 347.729C0 360.944 9.58996 371.919 22.1901 374.074V374.842C9.58996 376.997 0 387.972 0 401.187C0 415.949 11.967 427.916 26.729 427.916C39.9439 427.916 50.9189 418.326 53.0743 405.726H53.8419C55.9972 418.326 66.9722 427.916 80.1871 427.916C94.9491 427.916 106.916 415.949 106.916 401.187C106.916 387.972 97.3262 376.997 84.726 374.842V374.074C97.3262 371.919 106.916 360.944 106.916 347.729C106.916 332.967 94.9491 321 80.1871 321C66.9723 321 55.9973 330.59 53.8419 343.19H53.0743Z" fill="#30705E"/>
</g>
<defs>
<clipPath id="clip0_10_1550">
<rect width="1219" height="428" fill="white"/>
</clipPath>
</defs>
</svg>
