<svg width="120" height="120" viewBox="0 0 120 120" fill="none" xmlns="http://www.w3.org/2000/svg">
<circle cx="60" cy="42" r="19" fill="url(#paint0_linear_10_1592)"/>
<path d="M24 97C24 92.2724 24.9312 87.5911 26.7403 83.2234C28.5495 78.8557 31.2012 74.8871 34.5442 71.5442C37.8871 68.2012 41.8557 65.5495 46.2234 63.7403C50.5911 61.9312 55.2724 61 60 61C64.7276 61 69.4089 61.9312 73.7766 63.7403C78.1443 65.5495 82.1129 68.2012 85.4559 71.5442C88.7988 74.8871 91.4505 78.8557 93.2597 83.2234C95.0688 87.5911 96 92.2724 96 97L24 97Z" fill="url(#paint1_linear_10_1592)"/>
<defs>
<linearGradient id="paint0_linear_10_1592" x1="87.5" y1="51" x2="41" y2="61" gradientUnits="userSpaceOnUse">
<stop stop-color="#EDC37D"/>
<stop offset="1" stop-color="#BFF7E7"/>
</linearGradient>
<linearGradient id="paint1_linear_10_1592" x1="26" y1="81" x2="91" y2="88" gradientUnits="userSpaceOnUse">
<stop stop-color="#EDC37D"/>
<stop offset="1" stop-color="#BFF7E7"/>
</linearGradient>
</defs>
</svg>
