<svg width="92" height="26" viewBox="0 0 92 26" fill="none" xmlns="http://www.w3.org/2000/svg">
<path d="M11.28 9.78C11.28 9.78 16.08 10.5 15.84 15.72C15.75 17.82 14.4 20.31 11.04 20.76C9.93 20.91 8.58 20.94 7.05 20.94H0V0.0599992H6.78C10.77 -0.0300014 14.46 0.929999 14.46 5.22C14.46 9.12 11.28 9.78 11.28 9.78ZM2.67 2.1V8.94H4.5C4.5 8.94 5.31 8.94 5.43 8.94C6.12 8.94 7.5 8.88 7.92 8.88C10.23 8.94 11.85 7.65 11.85 5.4C11.85 3.84 10.92 2.07 6.39 2.07L2.67 2.1ZM7.17 18.72C12.03 18.84 13.14 17.22 13.14 14.94C13.14 13.35 12.09 11.19 8.28 11.19L2.67 11.22V18.72H6.21C6.21 18.72 7.02 18.72 7.17 18.72Z" fill="#144150"/>
<path d="M17.3986 20.97V5.82H20.0686L20.0086 20.97H17.3986ZM20.0686 2.67H17.3986V0.0599992H20.0686V2.67Z" fill="#144150"/>
<path d="M28.5091 5.37C33.4591 5.37 35.7091 8.82 35.7091 13.29C35.7091 16.98 34.0891 21.24 28.5091 21.24C23.1991 21.21 21.3091 17.28 21.3091 13.47C21.3091 8.7 23.3791 5.37 28.5091 5.37ZM28.5091 19.14C31.1491 19.14 32.9491 17.19 32.9491 12.96C32.9491 9.09 30.8791 7.41 28.4191 7.41C26.0191 7.41 24.0691 9.48 24.0691 12.99C24.0691 17.34 25.8391 19.14 28.5091 19.14Z" fill="#144150"/>
<path d="M43.5361 5.61C45.6661 5.61 49.6861 6.66 49.6861 13.56C49.6861 20.91 45.5461 21.45 43.3861 21.36C41.7961 21.3 40.6561 20.64 39.9361 20.04C39.2461 19.47 38.9161 18.51 38.9161 18.51C38.9161 18.51 38.9161 25.08 38.9161 26.01H36.3961V5.88H38.9161V8.34C38.9161 8.34 39.2161 7.35 39.8761 6.84C40.5961 6.24 41.7661 5.61 43.5361 5.61ZM42.9661 19.29C45.6061 19.41 47.1661 17.43 47.1661 13.65C47.1661 9.57 45.5161 7.68 42.9661 7.68C41.4361 7.68 39.0661 8.76 39.0661 13.44C39.0661 17.88 41.3161 19.23 42.9661 19.29Z" fill="#144150"/>
<path d="M63.1601 18.18L63.8801 20.91L61.0001 20.94L60.7901 18.72C60.7901 18.72 60.4001 19.47 59.6801 20.1C59.4101 20.34 59.0501 20.49 58.6601 20.67C57.8501 21.03 56.7701 21.24 55.5401 21.24C48.2801 21.24 48.3101 13.23 54.1601 12.42C54.9701 12.33 55.9601 12.21 56.9201 12.09C59.0801 11.85 60.4601 11.52 60.6101 10.77C60.6101 10.77 60.9401 9.6 59.8901 8.55C58.6301 7.23 53.6801 6.99 52.9301 9.9L50.5001 9.3C50.7701 8.37 51.2501 7.5 52.0601 6.9C52.7801 6.33 53.5901 5.94 54.5201 5.73C55.7201 5.46 59.3801 5.19 61.0901 6.51C63.1901 8.1 63.0401 10.29 63.1001 12.03L63.1601 18.18ZM60.6401 15V13.29C58.6901 14.43 54.5501 13.86 53.0501 15.24C52.1501 16.02 52.3001 17.67 53.3801 18.48C54.0401 18.99 54.9101 19.14 55.8401 19.14C57.1601 19.14 58.5701 18.69 59.5001 17.73C60.1601 17.07 60.6401 16.23 60.6401 15Z" fill="#144150"/>
<path d="M71.0562 18.96C74.1162 18.93 74.9262 16.59 74.9262 16.59L77.5362 17.16C77.5362 17.16 76.5762 21.24 70.9662 21.24C67.0962 21.24 63.9762 18.57 63.9762 13.11C63.9762 8.52 66.6162 5.52 70.8462 5.52C76.3662 5.52 77.2662 9.54 77.2662 9.54L74.6562 10.17C74.6562 10.17 73.8762 7.47 70.8462 7.59C67.8762 7.71 66.6762 10.08 66.6462 13.17C66.6762 17.1 68.6562 18.96 71.0562 18.96Z" fill="#144150"/>
<path d="M91.2956 20.94H87.9356L80.6756 13.29L80.7356 20.94L78.0656 20.97V0H80.7356L80.6756 11.94L87.3956 5.73H90.7256L83.1656 12.63L91.2956 20.94Z" fill="#144150"/>
</svg>
