<svg width="194" height="194" viewBox="0 0 194 194" fill="none" xmlns="http://www.w3.org/2000/svg">
<path d="M121.596 32.6762C124.248 31.3346 127.461 32.7846 128.209 35.6605L131.794 49.442C132.304 51.4028 134.023 52.8092 136.046 52.921L150.264 53.7067C153.231 53.8707 155.289 56.7328 154.499 59.5974L150.713 73.3252C150.174 75.2784 150.96 77.3558 152.656 78.4641L164.577 86.2538C167.064 87.8793 167.415 91.3867 165.298 93.4725L155.156 103.468C153.713 104.89 153.354 107.082 154.269 108.89L160.698 121.596C162.039 124.248 160.589 127.461 157.713 128.209L143.932 131.794C141.971 132.304 140.564 134.023 140.453 136.046L139.667 150.265C139.503 153.232 136.641 155.289 133.776 154.499L120.049 150.713C118.095 150.174 116.018 150.96 114.91 152.656L107.12 164.577C105.494 167.064 101.987 167.415 99.9012 165.298L89.9057 155.156C88.4835 153.713 86.2917 153.354 84.4838 154.269L71.7774 160.698C69.1259 162.039 65.913 160.589 65.1649 157.713L61.5797 143.932C61.0696 141.971 59.3508 140.565 57.3277 140.453L43.1092 139.667C40.1422 139.503 38.0848 136.641 38.8748 133.776L42.6608 120.049C43.1994 118.095 42.414 116.018 40.7179 114.91L28.7972 107.12C26.3096 105.495 25.9589 101.987 28.0754 99.9013L38.218 89.9057C39.6611 88.4835 40.0196 86.2917 39.1049 84.4838L32.6761 71.7774C31.3346 69.1259 32.7846 65.9131 35.6604 65.1649L49.4419 61.5798C51.4028 61.0697 52.8092 59.3508 52.921 57.3278L53.7067 43.1093C53.8706 40.1422 56.7328 38.0849 59.5974 38.8749L73.3251 42.6608C75.2783 43.1995 77.3557 42.4141 78.464 40.718L86.2537 28.7972C87.8792 26.3097 91.3866 25.959 93.4724 28.0755L103.468 38.2181C104.89 39.6612 107.082 40.0197 108.89 39.105L121.596 32.6762Z" fill="#FFCD83"/>
<path d="M66.3267 98.625L59.4069 83.4261L61.5457 82.4523L67.6264 95.8082L75.7947 92.0893L76.6338 93.9323L66.3267 98.625ZM81.9016 91.8636C80.7185 92.4022 79.6 92.6002 78.546 92.4574C77.4852 92.2994 76.5346 91.8806 75.6942 91.2011C74.862 90.4996 74.1938 89.5951 73.6897 88.4878C73.1441 87.2895 72.9172 86.1476 73.009 85.062C73.0938 83.9612 73.4387 82.9892 74.0437 82.1461C74.657 81.2809 75.4794 80.6134 76.5109 80.1438C77.4058 79.7364 78.2774 79.5593 79.1258 79.6126C79.9672 79.6507 80.746 79.8729 81.4621 80.2794C82.1865 80.6638 82.8199 81.1903 83.3624 81.859C83.9201 82.5207 84.3516 83.2674 84.6569 84.0989L75.9654 88.0561C76.4239 88.9827 76.967 89.6327 77.5949 90.0062C78.2379 90.3727 78.8766 90.5488 79.5111 90.5347C80.1387 90.5053 80.68 90.387 81.1351 90.1799C81.7721 89.8898 82.2581 89.5495 82.5931 89.1589C82.9363 88.7463 83.1609 88.3144 83.2668 87.8633L85.3584 87.5703C85.2458 88.409 84.907 89.2134 84.3419 89.9834C83.7768 90.7534 82.9634 91.3801 81.9016 91.8636ZM75.294 86.5213L81.9379 83.4964C81.6962 82.9655 81.3283 82.5195 80.8343 82.1585C80.3554 81.7905 79.8042 81.5653 79.1807 81.4829C78.5655 81.3785 77.9241 81.4782 77.2567 81.782C76.6955 82.0376 76.2129 82.3854 75.809 82.8257C75.4052 83.266 75.1434 83.7972 75.0238 84.4193C74.9193 85.0346 75.0094 85.7352 75.294 86.5213ZM91.0497 87.6986C90.3368 88.0232 89.6258 88.1912 88.9168 88.2027C88.2079 88.2141 87.5684 88.0566 86.9986 87.73C86.4287 87.4035 85.9884 86.8989 85.6776 86.2163C85.2701 85.3214 85.26 84.4745 85.6471 83.6756C86.0494 82.8698 86.7572 82.0714 87.7705 81.2804C88.7921 80.4674 90.0309 79.6287 91.487 78.7643C91.0822 77.7949 90.5577 77.1455 89.9133 76.8163C89.269 76.487 88.4917 76.5295 87.5816 76.9439C86.899 77.2547 86.4103 77.6695 86.1154 78.1883C85.8288 78.685 85.7492 79.234 85.8764 79.8354L83.7849 80.1284C83.6946 79.1256 83.9292 78.2131 84.4887 77.3906C85.0565 76.5461 85.8485 75.8925 86.8648 75.4298C88.4272 74.7185 89.734 74.5722 90.7853 74.9908C91.8449 75.3875 92.7338 76.3745 93.452 77.952L94.6537 80.5914C95.0819 81.5318 95.4892 82.3261 95.8759 82.9741C96.2625 83.6222 96.6297 84.1875 96.9776 84.67L95.2256 85.4677L94.0662 84.1277C93.988 84.8408 93.7139 85.5059 93.2439 86.1227C92.767 86.7244 92.0356 87.2497 91.0497 87.6986ZM90.7652 85.9877C91.3567 85.7183 91.8696 85.3566 92.3039 84.9026C92.7381 84.4485 93.0081 83.8952 93.1139 83.2427C93.2128 82.5751 93.062 81.8013 92.6614 80.9216L92.3403 80.2162C91.2427 80.8624 90.3107 81.4699 89.5441 82.0387C88.7706 82.5923 88.2213 83.1354 87.8961 83.668C87.5792 84.1786 87.5381 84.6917 87.7729 85.2074C88.0146 85.7383 88.401 86.0843 88.9322 86.2454C89.4716 86.3843 90.0826 86.2984 90.7652 85.9877ZM100.695 82.9777L91.5293 73.5259L93.5999 72.5832L100.556 80.0191L99.4928 69.9002L101.563 68.9575L102.674 82.0765L100.695 82.9777ZM111.75 78.2742C110.566 78.8129 109.448 79.0108 108.394 78.868C107.333 78.71 106.383 78.2913 105.542 77.6118C104.71 76.9102 104.042 76.0058 103.538 74.8985C102.992 73.7002 102.765 72.5582 102.857 71.4726C102.942 70.3718 103.287 69.3999 103.892 68.5567C104.505 67.6915 105.327 67.0241 106.359 66.5545C107.254 66.147 108.125 65.9699 108.974 66.0232C109.815 66.0613 110.594 66.2836 111.31 66.6901C112.034 67.0744 112.668 67.601 113.21 68.2696C113.768 68.9314 114.2 69.678 114.505 70.5096L105.813 74.4667C106.272 75.3934 106.815 76.0434 107.443 76.4168C108.086 76.7833 108.725 76.9595 109.359 76.9453C109.987 76.9159 110.528 76.7977 110.983 76.5905C111.62 76.3004 112.106 75.9601 112.441 75.5696C112.784 75.1569 113.009 74.7251 113.115 74.274L115.206 73.9809C115.094 74.8197 114.755 75.624 114.19 76.394C113.625 77.1641 112.811 77.7908 111.75 78.2742ZM105.142 72.9319L111.786 69.9071C111.544 69.3762 111.176 68.9302 110.682 68.5691C110.203 68.2011 109.652 67.9759 109.029 67.8936C108.413 67.7891 107.772 67.8888 107.105 68.1927C106.543 68.4482 106.061 68.7961 105.657 69.2363C105.253 69.6766 104.991 70.2078 104.872 70.83C104.767 71.4452 104.857 72.1459 105.142 72.9319ZM64.1981 128.162L57.2783 112.963L60.4409 111.523L73.2417 121.298L67.3578 108.374L69.4966 107.4L76.4164 122.599L73.2765 124.029L60.4219 114.196L66.3369 127.188L64.1981 128.162ZM83.0811 119.894C82.4288 120.191 81.7324 120.371 80.9917 120.434C80.251 120.496 79.5082 120.413 78.7632 120.185C78.0265 119.934 77.3297 119.51 76.6727 118.911C76.0158 118.313 75.456 117.506 74.9933 116.49C74.5306 115.473 74.2893 114.521 74.2694 113.633C74.2496 112.745 74.3905 111.948 74.6921 111.243C75.002 110.516 75.4237 109.893 75.9572 109.376C76.4907 108.858 77.0836 108.451 77.7358 108.154C78.3881 107.857 79.0845 107.677 79.8252 107.615C80.581 107.545 81.3273 107.636 82.064 107.887C82.809 108.115 83.5024 108.532 84.1441 109.137C84.8011 109.735 85.3609 110.543 85.8236 111.559C86.2863 112.575 86.5276 113.527 86.5474 114.416C86.5825 115.297 86.445 116.101 86.1351 116.828C85.8335 117.533 85.4083 118.148 84.8597 118.673C84.3262 119.19 83.7333 119.598 83.0811 119.894ZM82.3145 118.211C82.8606 117.962 83.3259 117.576 83.7104 117.053C84.088 116.515 84.3055 115.867 84.363 115.108C84.4136 114.334 84.2178 113.462 83.7759 112.491C83.3339 111.52 82.8079 110.808 82.198 110.353C81.5811 109.883 80.9492 109.621 80.3023 109.568C79.6484 109.499 79.0484 109.589 78.5024 109.838C77.9715 110.079 77.5096 110.473 77.1169 111.018C76.7323 111.541 76.5148 112.189 76.4642 112.963C76.4068 113.722 76.599 114.587 77.041 115.557C77.483 116.528 78.0124 117.249 78.6293 117.719C79.2392 118.173 79.8711 118.435 80.525 118.504C81.1871 118.55 81.7836 118.452 82.3145 118.211ZM97.9288 112.805L91.8481 99.449L86.7969 101.749L85.9579 99.9057L98.1989 94.3325L99.038 96.1755L93.9868 98.4752L100.068 111.831L97.9288 112.805ZM104.163 109.967L99.0245 98.6813L100.412 98.0494L101.98 99.863C102.063 99.0009 102.346 98.2131 102.827 97.4997C103.316 96.7642 104.031 96.1823 104.971 95.7542L105.872 97.7337C105.766 97.782 105.652 97.8338 105.531 97.8891C105.425 97.9374 105.322 97.9933 105.223 98.0568C103.982 98.75 103.283 99.6084 103.126 100.632C102.985 101.649 103.232 102.855 103.867 104.25L106.074 109.097L104.163 109.967ZM113.37 106.104C112.657 106.429 111.946 106.597 111.237 106.609C110.528 106.62 109.888 106.462 109.319 106.136C108.749 105.809 108.308 105.305 107.998 104.622C107.59 103.727 107.58 102.88 107.967 102.082C108.369 101.276 109.077 100.477 110.09 99.6863C111.112 98.8733 112.351 98.0346 113.807 97.1702C113.402 96.2008 112.878 95.5514 112.233 95.2222C111.589 94.8929 110.812 94.9354 109.902 95.3498C109.219 95.6606 108.73 96.0754 108.435 96.5942C108.149 97.0909 108.069 97.64 108.196 98.2413L106.105 98.5343C106.015 97.5316 106.249 96.619 106.809 95.7965C107.376 94.952 108.169 94.2984 109.185 93.8357C110.747 93.1244 112.054 92.9781 113.105 93.3968C114.165 93.7934 115.054 94.7804 115.772 96.358L116.974 98.9973C117.402 99.9377 117.809 100.732 118.196 101.38C118.582 102.028 118.95 102.593 119.298 103.076L117.546 103.874L116.386 102.534C116.308 103.247 116.034 103.912 115.564 104.529C115.087 105.13 114.356 105.656 113.37 106.104ZM113.085 104.394C113.677 104.124 114.19 103.763 114.624 103.308C115.058 102.854 115.328 102.301 115.434 101.649C115.533 100.981 115.382 100.207 114.981 99.3275L114.66 98.6221C113.563 99.2683 112.631 99.8758 111.864 100.445C111.091 100.998 110.541 101.541 110.216 102.074C109.899 102.584 109.858 103.098 110.093 103.613C110.335 104.144 110.721 104.49 111.252 104.651C111.792 104.79 112.403 104.704 113.085 104.394ZM125.232 100.704C124.155 101.194 123.108 101.368 122.092 101.227C121.068 101.07 120.144 100.649 119.319 99.9624C118.493 99.276 117.822 98.364 117.304 97.2263C116.793 96.1039 116.557 95.0026 116.596 93.9226C116.644 92.8204 116.963 91.8326 117.554 90.9591C118.139 90.0705 118.984 89.3741 120.092 88.8699C121.108 88.4072 122.094 88.2604 123.05 88.4295C124.006 88.5986 124.825 88.9491 125.507 89.4811L124.045 90.9158C123.595 90.5713 123.073 90.3695 122.478 90.3106C121.884 90.2516 121.298 90.3534 120.722 90.6158C120.161 90.8713 119.699 91.2647 119.336 91.796C118.967 92.3121 118.772 92.9502 118.752 93.7102C118.725 94.4551 118.929 95.3053 119.364 96.2609C119.792 97.2014 120.303 97.9211 120.896 98.42C121.498 98.8969 122.111 99.1765 122.734 99.2589C123.373 99.3344 123.973 99.2444 124.534 98.9888C125.156 98.7057 125.632 98.324 125.963 97.8438C126.302 97.3415 126.496 96.8228 126.545 96.2875L128.587 96.127C128.494 97.0484 128.164 97.9314 127.596 98.7759C127.021 99.6053 126.233 100.248 125.232 100.704ZM135.403 96.0731C134.22 96.6118 133.101 96.8097 132.047 96.6669C130.986 96.509 130.036 96.0902 129.195 95.4107C128.363 94.7091 127.695 93.8047 127.191 92.6974C126.645 91.4991 126.418 90.3571 126.51 89.2715C126.595 88.1708 126.94 87.1988 127.545 86.3557C128.158 85.4904 128.981 84.823 130.012 84.3534C130.907 83.946 131.779 83.7689 132.627 83.8221C133.468 83.8602 134.247 84.0825 134.963 84.489C135.688 84.8734 136.321 85.3999 136.864 86.0686C137.421 86.7303 137.853 87.4769 138.158 88.3085L129.466 92.2657C129.925 93.1923 130.468 93.8423 131.096 94.2157C131.739 94.5822 132.378 94.7584 133.012 94.7442C133.64 94.7149 134.181 94.5966 134.636 94.3894C135.273 94.0994 135.759 93.7591 136.094 93.3685C136.437 92.9559 136.662 92.524 136.768 92.0729L138.86 91.7799C138.747 92.6186 138.408 93.423 137.843 94.193C137.278 94.963 136.465 95.5897 135.403 96.0731ZM128.795 90.7309L135.439 87.706C135.197 87.1751 134.829 86.7291 134.335 86.368C133.857 86.0001 133.305 85.7749 132.682 85.6925C132.067 85.588 131.425 85.6877 130.758 85.9916C130.197 86.2471 129.714 86.595 129.31 87.0353C128.906 87.4755 128.645 88.0067 128.525 88.6289C128.42 89.2442 128.511 89.9448 128.795 90.7309ZM140.245 88.1824L136.717 81.5203L134.936 77.6068L136.961 76.6849L138.742 80.5983L141.451 87.6334L140.245 88.1824ZM142.981 92.6229C142.586 92.8025 142.18 92.8138 141.76 92.6568C141.341 92.4998 141.041 92.2241 140.862 91.8297C140.675 91.4202 140.661 91.0057 140.817 90.5863C140.974 90.1669 141.25 89.8674 141.645 89.6878C142.054 89.5014 142.469 89.4866 142.888 89.6436C143.307 89.8006 143.61 90.0839 143.797 90.4934C143.976 90.8878 143.988 91.2947 143.831 91.7141C143.674 92.1335 143.39 92.4365 142.981 92.6229Z" fill="black"/>
</svg>
