<svg width="20" height="21" viewBox="0 0 20 21" fill="none" xmlns="http://www.w3.org/2000/svg">
<path d="M10 2.5C11.2081 2.5007 12.4004 2.77501 13.4873 3.30234C14.5743 3.82967 15.5277 4.59633 16.276 5.54479C17.0243 6.49324 17.5481 7.59886 17.808 8.77868C18.0679 9.95849 18.0573 11.1819 17.7769 12.357C17.4964 13.5321 16.9535 14.6284 16.1888 15.5637C15.4241 16.499 14.4575 17.249 13.3616 17.7573C12.2656 18.2657 11.0688 18.5192 9.86083 18.4989C8.65289 18.4785 7.46524 18.1849 6.387 17.64L6.266 17.575L2.621 18.485C2.55085 18.5026 2.47771 18.5048 2.40662 18.4915C2.33554 18.4781 2.2682 18.4495 2.20926 18.4075C2.15032 18.3656 2.10117 18.3114 2.06522 18.2486C2.02926 18.1859 2.00735 18.1161 2.001 18.044V17.962L2.015 17.879L2.925 14.235L2.862 14.115C2.40438 13.2142 2.12269 12.2343 2.032 11.228L2.007 10.846L2 10.5C2 8.37827 2.84285 6.34344 4.34315 4.84315C5.84344 3.34285 7.87827 2.5 10 2.5ZM10.5 11.5H7.5L7.41 11.508C7.29472 11.5289 7.19043 11.5896 7.11532 11.6795C7.04022 11.7694 6.99908 11.8828 6.99908 12C6.99908 12.1172 7.04022 12.2306 7.11532 12.3205C7.19043 12.4104 7.29472 12.4711 7.41 12.492L7.5 12.5H10.5L10.59 12.492C10.7053 12.4711 10.8096 12.4104 10.8847 12.3205C10.9598 12.2306 11.0009 12.1172 11.0009 12C11.0009 11.8828 10.9598 11.7694 10.8847 11.6795C10.8096 11.5896 10.7053 11.5289 10.59 11.508L10.5 11.5ZM12.5 8.5H7.5L7.41 8.508C7.29472 8.52887 7.19043 8.58957 7.11532 8.67949C7.04022 8.76941 6.99908 8.88284 6.99908 9C6.99908 9.11716 7.04022 9.23059 7.11532 9.32051C7.19043 9.41043 7.29472 9.47113 7.41 9.492L7.5 9.5H12.5L12.59 9.492C12.7053 9.47113 12.8096 9.41043 12.8847 9.32051C12.9598 9.23059 13.0009 9.11716 13.0009 9C13.0009 8.88284 12.9598 8.76941 12.8847 8.67949C12.8096 8.58957 12.7053 8.52887 12.59 8.508L12.5 8.5Z" fill="#4E9983"/>
</svg>
